Coordinates
version=1
nRows=12
nColumns=46
inDegrees=yes

Units are S.I. units (second, meters, Newtons, ...)
Angles are in degrees.

endheader
time	pelvis_tilt	pelvis_list	pelvis_rotation	pelvis_tx	pelvis_ty	pelvis_tz	bb_angle	bb_tx	bb_ty	bb_tz	hip_flexion_r	hip_adduction_r	hip_rotation_r	knee_angle_r	knee_angle_r_beta	ankle_angle_r	subtalar_angle_r	mtp_angle_r	crank_angle_r	hip_flexion_l	hip_adduction_l	hip_rotation_l	knee_angle_l	knee_angle_l_beta	ankle_angle_l	subtalar_angle_l	mtp_angle_l	crank_angle_l	lumbar_extension	lumbar_bending	lumbar_rotation	arm_flex_r	arm_add_r	arm_rot_r	elbow_flex_r	pro_sup_r	wrist_flex_r	wrist_dev_r	arm_flex_l	arm_add_l	arm_rot_l	elbow_flex_l	pro_sup_l	wrist_flex_l	wrist_dev_l
      0.00500000	    -21.69393664	     -0.09258814	     -3.41628505	      0.14949823	      1.04006175	     -0.20867336	      0.00000000	      0.50000000	      0.00000000	      0.25000000	     89.22860869	     -1.58092868	      2.10752764	     84.76419066	      1.47941421	     -6.31701324	     -4.77383666	      0.00000000	      0.00000000	     58.62987079	     -5.64243153	      3.38938134	     77.82669938	      1.35833215	    -16.84266524	    -15.73871386	      0.00000000	      0.00000000	    -41.86706551	     -0.42016394	      2.51387663	     78.30635686	     -5.47291313	     25.62098204	     39.85445223	     45.48467195	      0.00000000	      0.00000000	     77.00604620	    -11.01412605	     25.62274958	     38.58264746	     44.50099299	      0.00000000	      0.00000000
      0.01000000	    -21.66439791	     -0.14449441	     -3.40681413	      0.14946541	      1.04011669	     -0.20868293	      0.00000000	      0.50000000	      0.00000000	      0.25000000	     89.18321315	     -1.57296330	      2.05459954	     84.75528785	      1.47925883	     -6.34341159	     -4.87202062	      0.00000000	      0.00000000	     58.61215242	     -5.66988766	      3.44469971	     77.83622942	      1.35849848	    -16.80206518	    -15.66198527	      0.00000000	      0.00000000	    -41.92129640	     -0.37224455	      2.57556300	     78.36526685	     -5.83391993	     26.44976305	     40.07069552	     45.37078067	      0.00000000	      0.00000000	     77.11788239	    -11.31455356	     26.67932994	     38.67597398	     44.47473687	      0.00000000	      0.00000000
      0.01500000	    -21.66970876	     -0.16343243	     -3.38820977	      0.14947016	      1.04018373	     -0.20872412	      0.00000000	      0.50000000	      0.00000000	      0.25000000	     89.17331254	     -1.58254447	      2.03366871	     84.73478969	      1.47890107	     -6.40069803	     -4.96416287	      0.00000000	      0.00000000	     58.61551164	     -5.65196677	      3.47599013	     77.80364832	      1.35792983	    -16.96521968	    -15.84812787	      0.00000000	      0.00000000	    -41.97091944	     -0.35440590	      2.57633717	     78.16228371	     -5.85684948	     25.94511237	     40.63536573	     45.33094040	      0.00000000	      0.00000000	     76.91798214	    -11.29863625	     26.14979657	     39.23831778	     44.46040550	      0.00000000	      0.00000000
      0.02000000	    -21.60252058	     -0.11056330	     -3.31633455	      0.14936677	      1.04034180	     -0.20876255	      0.00000000	      0.50000000	      0.00000000	      0.25000000	     89.10965436	     -1.64936340	      2.10485542	     84.73209299	      1.47885400	     -6.35083919	     -4.88289715	      0.00000000	      0.00000000	     58.54478146	     -5.54380242	      3.48515278	     77.80424700	      1.35794028	    -16.71707337	    -15.41126642	      0.00000000	      0.00000000	    -42.01992927	     -0.39086757	      2.48650470	     78.34326255	     -5.74211084	     26.04359300	     40.13143645	     45.23850628	      0.00000000	      0.00000000	     77.15703202	    -11.17407319	     26.28492969	     38.72423412	     44.38407403	      0.00000000	      0.00000000
      0.02500000	    -21.61522121	     -0.11972823	     -3.29764825	      0.14929641	      1.04049821	     -0.20880396	      0.00000000	      0.50000000	      0.00000000	      0.25000000	     89.12782041	     -1.67245972	      2.12576116	     84.75714438	      1.47929123	     -6.25625958	     -4.69568438	      0.00000000	      0.00000000	     58.55540899	     -5.53166816	      3.50438994	     77.78176568	      1.35754791	    -16.71183654	    -15.38323385	      0.00000000	      0.00000000	    -41.96648652	     -0.38855845	      2.46686990	     78.37089667	     -5.65636445	     25.89576583	     39.91628208	     44.89572955	      0.00000000	      0.00000000	     77.18953964	    -11.02150511	     26.09372213	     38.49289478	     44.09033443	      0.00000000	      0.00000000
      0.03000000	    -21.64395791	     -0.11785124	     -3.31270738	      0.14925328	      1.04046842	     -0.20874483	      0.00000000	      0.50000000	      0.00000000	      0.25000000	     89.16735416	     -1.65354459	      2.10799427	     84.74838007	      1.47913827	     -6.32248502	     -4.77613955	      0.00000000	      0.00000000	     58.59213091	     -5.55938905	      3.50341709	     77.77907521	      1.35750095	    -16.69551805	    -15.31904013	      0.00000000	      0.00000000	    -41.93550405	     -0.39843908	      2.47627441	     78.36724808	     -5.57903295	     25.81373004	     39.91589890	     44.48840183	      0.00000000	      0.00000000	     77.17122046	    -10.96736756	     25.95334182	     38.49509315	     43.77792041	      0.00000000	      0.00000000
      0.03500000	    -21.64712789	     -0.12209890	     -3.31243604	      0.14922156	      1.04047740	     -0.20872993	      0.00000000	      0.50000000	      0.00000000	      0.25000000	     89.17855739	     -1.64697062	      2.10662212	     84.75675210	      1.47928439	     -6.35020495	     -4.80754615	      0.00000000	      0.00000000	     58.60144531	     -5.56768016	      3.50298145	     77.77610423	      1.35744910	    -16.73089222	    -15.34132078	      0.00000000	      0.00000000	    -41.94314500	     -0.40123313	      2.49750552	     78.36596074	     -5.82478876	     26.29986751	     40.10471843	     44.62945772	      0.00000000	      0.00000000	     77.21640519	    -11.21325952	     26.64056639	     38.61516080	     43.93392531	      0.00000000	      0.00000000
      0.04000000	    -21.64200203	     -0.10204564	     -3.31040437	      0.14921792	      1.04052145	     -0.20874598	      0.00000000	      0.50000000	      0.00000000	      0.25000000	     89.18270364	     -1.65107952	      2.13061154	     84.76590282	      1.47944410	     -6.35550173	     -4.80053385	      0.00000000	      0.00000000	     58.58892073	     -5.54917719	      3.48849230	     77.75823194	      1.35713717	    -16.74884489	    -15.35731373	      0.00000000	      0.00000000	    -41.95187468	     -0.42203684	      2.47084254	     78.36553752	     -5.77902332	     26.21259111	     40.10689944	     44.45543574	      0.00000000	      0.00000000	     77.20473912	    -11.18679309	     26.55162795	     38.63364321	     43.78192028	      0.00000000	      0.00000000
      0.04500000	    -21.63289374	     -0.11182419	     -3.29576640	      0.14920214	      1.04055853	     -0.20877785	      0.00000000	      0.50000000	      0.00000000	      0.25000000	     89.16976979	     -1.66145369	      2.12784438	     84.76602532	      1.47944624	     -6.34281651	     -4.79403018	      0.00000000	      0.00000000	     58.57752452	     -5.53848174	      3.51279163	     77.74924442	      1.35698031	    -16.72358931	    -15.32091440	      0.00000000	      0.00000000	    -41.95885369	     -0.39732908	      2.46191692	     78.37328856	     -5.60798252	     25.90887009	     39.99619568	     44.12583234	      0.00000000	      0.00000000	     77.20316431	    -11.02533596	     26.14885911	     38.56037789	     43.52237562	      0.00000000	      0.00000000
      0.05000000	    -21.65559968	     -0.09305297	     -3.30718018	      0.14921177	      1.04052362	     -0.20874106	      0.00000000	      0.50000000	      0.00000000	      0.25000000	     89.20593940	     -1.64475340	      2.14321901	     84.76443875	      1.47941854	     -6.40082256	     -4.85153911	      0.00000000	      0.00000000	     58.59716944	     -5.54330937	      3.47316808	     77.73410586	      1.35671609	    -16.82216457	    -15.44381049	      0.00000000	      0.00000000	    -41.93707273	     -0.43968404	      2.45680178	     78.29025162	     -5.76298740	     26.07164932	     40.23971917	     44.24079585	      0.00000000	      0.00000000	     77.16996619	    -11.16268300	     26.42272445	     38.74628431	     43.63780758	      0.00000000	      0.00000000
      0.05500000	    -21.63275335	     -0.10285669	     -3.30801010	      0.14919291	      1.04055933	     -0.20875508	      0.00000000	      0.50000000	      0.00000000	      0.25000000	     89.18729635	     -1.63579188	      2.14818844	     84.78073039	      1.47970289	     -6.37815209	     -4.82773546	      0.00000000	      0.00000000	     58.57180419	     -5.55011551	      3.48902246	     77.73771516	      1.35677908	    -16.74012042	    -15.33647695	      0.00000000	      0.00000000	    -41.95438102	     -0.42537734	      2.46107014	     78.36806315	     -5.62034282	     25.91190903	     40.02810024	     43.99950451	      0.00000000	      0.00000000	     77.19200917	    -11.01219692	     26.08938730	     38.58978146	     43.43925164	      0.00000000	      0.00000000
      0.06000000	    -21.63481713	     -0.11493965	     -3.31668159	      0.14917098	      1.04054945	     -0.20873788	      0.00000000	      0.50000000	      0.00000000	      0.25000000	     89.19284259	     -1.61347186	      2.14311195	     84.78157794	      1.47971768	     -6.40222658	     -4.87490525	      0.00000000	      0.00000000	     58.57443798	     -5.57217733	      3.48902355	     77.74197290	      1.35685339	    -16.70575383	    -15.30071144	      0.00000000	      0.00000000	    -41.95487147	     -0.42361674	      2.48028483	     78.39200786	     -5.73259330	     26.15453946	     40.08198463	     44.00565512	      0.00000000	      0.00000000	     77.21553553	    -11.12170952	     26.48865174	     38.60805823	     43.45649501	      0.00000000	      0.00000000
